<?xml version="1.0" encoding="UTF-8" standalone="no"?>
<svg
   version="1.1"
   viewBox="-5 -10 110.41558 112.11831"
   id="svg2"
   width="110.41557"
   height="112.11832"
   sodipodi:docname="camera.svg"
   inkscape:version="1.3.2 (091e20ef0f, 2023-11-25, custom)"
   xmlns:inkscape="http://www.inkscape.org/namespaces/inkscape"
   xmlns:sodipodi="http://sodipodi.sourceforge.net/DTD/sodipodi-0.dtd"
   xmlns="http://www.w3.org/2000/svg"
   xmlns:svg="http://www.w3.org/2000/svg">
  <sodipodi:namedview
     id="namedview1"
     pagecolor="#ffffff"
     bordercolor="#666666"
     borderopacity="1.0"
     inkscape:showpageshadow="2"
     inkscape:pageopacity="0.0"
     inkscape:pagecheckerboard="0"
     inkscape:deskcolor="#d1d1d1"
     inkscape:zoom="4.3347065"
     inkscape:cx="45.793181"
     inkscape:cy="79.820859"
     inkscape:window-width="1920"
     inkscape:window-height="1176"
     inkscape:window-x="1920"
     inkscape:window-y="0"
     inkscape:window-maximized="1"
     inkscape:current-layer="svg2" />
  <defs
     id="defs2" />
  <path
     d="m 77.820488,13.598801 c -1.0625,0 -2.0547,-0.53906 -2.6289,-1.4336 -1.3047,-2.0273 -3.0391,-4.7344 -4.3438,-6.7578003 -1.7266,-2.6836 -4.6953,-4.3047 -7.8867,-4.3047 h -24.426 c -3.1914,0 -6.1641,1.6211 -7.8867,4.3047 -1.3047,2.0234003 -3.0391,4.7305003 -4.3438,6.7578003 -0.57422,0.89453 -1.5664,1.4336 -2.6289,1.4336 h -10.43 c -5.1796997,0 -9.3749997,4.1953 -9.3749997,9.375 v 50 c 0,2.4883 0.98828,4.8711 2.7461,6.6289 1.7578,1.7578 4.1405997,2.7461 6.6288997,2.7461 h 75 c 2.4883,0 4.8711,-0.98828 6.6289,-2.7461 1.7578,-1.7578 2.7461,-4.1406 2.7461,-6.6289 v -50 c 0,-5.1797 -4.1953,-9.375 -9.375,-9.375 h -10.43 z m -27.07,12.5 c -12.07,0 -21.875,9.8047 -21.875,21.875 0,12.0703 9.8047,21.875 21.875,21.875 12.0703,0 21.875,-9.8047 21.875,-21.875 0,-12.0703 -9.8047,-21.875 -21.875,-21.875 z m 0,6.25 c 8.625,0 15.625,7 15.625,15.625 0,8.625 -7,15.625 -15.625,15.625 -8.625,0 -15.625,-7 -15.625,-15.625 0,-8.625 7,-15.625 15.625,-15.625 z m 28.125,0 h 3.125 c 1.7266,0 3.125,-1.3984 3.125,-3.125 0,-1.7266 -1.3984,-3.125 -3.125,-3.125 h -3.125 c -1.7266,0 -3.125,1.3984 -3.125,3.125 0,1.7266 1.3984,3.125 3.125,3.125 z"
     fill-rule="evenodd"
     id="path1" />
</svg>
