<?xml version="1.0" encoding="UTF-8" standalone="no"?>
<svg
   data-name="Layer 1"
   viewBox="0 0 99.387169 100.71342"
   x="0px"
   y="0px"
   version="1.1"
   id="svg3"
   width="99.387169"
   height="100.71342"
   xmlns="http://www.w3.org/2000/svg"
   xmlns:svg="http://www.w3.org/2000/svg"
   xmlns:rdf="http://www.w3.org/1999/02/22-rdf-syntax-ns#"
   xmlns:cc="http://creativecommons.org/ns#"
   xmlns:dc="http://purl.org/dc/elements/1.1/">
  <defs
     id="defs3" />
  <title
     id="title1">All</title>
  <path
     d="m 46.26,100 h -6.51 a 1.55,1.55 0 0 0 -0.29,-0.22 c -4.12,-1.88 -6.1,-5.66 -5,-10.07 2.95,-12.16 6,-24.3 9,-36.45 a 38,38 0 0 0 0.89,-5.11 1.19,1.19 0 0 0 -1.59,-1.42 9.62,9.62 0 0 0 -2,0.69 c -1.48,0.62 -2.92,1.35 -4.41,1.92 A 2.51,2.51 0 0 1 33,48.7 v -2.37 a 26.86,26.86 0 0 1 3.41,-3.91 c 4.46,-3.51 9,-6.86 13.63,-10.21 a 15.35,15.35 0 0 1 3.16,-1.59 7.68,7.68 0 0 1 4.61,-0.48 c 5.79,1.17 8.79,5.81 7.38,11.52 Q 60.9,59.22 56.57,76.78 a 47,47 0 0 0 -1,5.79 1.13,1.13 0 0 0 1.64,1.28 C 58.3,83.52 59.33,82.99 60.39,82.56 61.67,82 63,81.49 64.29,81 a 1.88,1.88 0 0 1 2.14,0.62 2,2 0 0 1 0.21,2.3 8.53,8.53 0 0 1 -1.23,1.89 33.23,33.23 0 0 1 -3.47,3.35 C 57,93.14 51.94,97.05 46.26,100 Z"
     id="path1" />
  <path
     d="M 54.68,24.63 A 12.31,12.31 0 1 1 67,12.34 12.28,12.28 0 0 1 54.68,24.63 Z"
     id="path2" />
  <metadata
     id="metadata3">
    <rdf:RDF>
      <cc:Work
         rdf:about="">
        <dc:title>All</dc:title>
      </cc:Work>
    </rdf:RDF>
  </metadata>
</svg>
